# xmcd CD database file
#
# Track frame offsets:
#	150
#	16145
#	31285
#	49240
#	57325
#	74090
#	79645
#	94293
#	118183
#	128385
#	139698
#	162590
#
# Disc length: 2442 seconds
#
# Revision: 0
# Processed by: cddbd v1.5.1PL0 Copyright (c) Steve Scherf et al.
# Submitted via: CDex 1.51
#
DISCID=a409880c
DTITLE=コシミハル - ペリカン通り殺人事件 "L'Assassinat de la rue du Pelican"
DYEAR=2001
DGENRE=JPop
TTITLE0=Cafe du carrefour
TTITLE1=Bonne nuit minouche
TTITLE2=Seigner et mademoiselle
TTITLE3=L'absinthe
TTITLE4=Laura
TTITLE5=Vat 69
TTITLE6=Rififi
TTITLE7=荒野の恋人 "Mon petit de la lande"
TTITLE8=ペリカン通り殺人事件 "L'Assassinat de la rue du Pelican"
TTITLE9=Stetson 7 3/8
TTITLE10=Chialeuse
TTITLE11=Ave Maria
EXTD=YEAR: 2001
EXTT0=
EXTT1=
EXTT2=
EXTT3=
EXTT4=
EXTT5=
EXTT6=
EXTT7=
EXTT8=
EXTT9=
EXTT10=
EXTT11=
PLAYORDER=
